<svg width="902" height="1235" viewBox="0 0 902 1235" fill="none" xmlns="http://www.w3.org/2000/svg">
<path d="M876.778 891.001L876.778 1107.27L446.679 976.121C364.884 950.897 314.854 933.611 296.147 924.064C182.369 957.931 125.589 1007.48 125.589 1072.1C125.589 1148.47 164.249 1188.07 241.569 1190.68L241.569 1235C169.604 1232.39 111.284 1214.6 66.6093 1181.13C22.2275 1147.67 0.0733313 1103.85 0.0733336 1049.58C0.0733356 1004.86 13.3511 971.398 39.9802 949.289C66.6093 927.582 121.114 903.663 203.202 878.539C67.8564 790.404 -2.26813e-05 646.192 -1.39527e-05 446.505C-7.9741e-06 309.73 38.9533 201.596 116.64 120.797C194.399 40.3995 305.611 -2.60472e-05 450.493 -1.97141e-05C592.808 -1.34933e-05 703.433 43.8164 782.66 131.952C861.887 220.188 901.5 326.111 901.5 449.822C901.5 537.053 878.979 608.707 833.644 664.784C788.602 720.76 714.803 770.305 612.762 813.317L876.778 891.001ZM512.628 778.947C611.808 739.452 689.495 694.731 745.614 645.689C801.366 596.647 829.315 537.957 829.315 469.419C829.315 314.453 696.83 237.071 432.154 237.071C180.828 237.071 55.3121 311.338 55.3121 459.369C55.3121 587.904 166.23 682.973 388.139 744.678L512.628 778.947Z" fill="#BB2649"/>
</svg>
